<?xml version="1.0" encoding="UTF-8" standalone="no"?>
<!-- Created with Inkscape (http://www.inkscape.org/) -->

<!-- Author: Owen Gallagher -->

<!-- Date: 26 December 2019 -->

<svg
   xmlns:dc="http://purl.org/dc/elements/1.1/"
   xmlns:cc="http://creativecommons.org/ns#"
   xmlns:rdf="http://www.w3.org/1999/02/22-rdf-syntax-ns#"
   xmlns:svg="http://www.w3.org/2000/svg"
   xmlns="http://www.w3.org/2000/svg"
   xmlns:sodipodi="http://sodipodi.sourceforge.net/DTD/sodipodi-0.dtd"
   xmlns:inkscape="http://www.inkscape.org/namespaces/inkscape"
   width="554.85059"
   height="219.1972"
   viewBox="0 0 146.80421 57.995929"
   version="1.1"
   id="svg8"
   inkscape:version="0.92.2 5c3e80d, 2017-08-06"
   sodipodi:docname="terry.svg"
   inkscape:export-filename="/Users/owengallagher/Documents/juniata/cs_research/terry/src/com/terry/res/terry_150.png"
   inkscape:export-xdpi="25.952932"
   inkscape:export-ydpi="25.952932">
  <defs
     id="defs2" />
  <sodipodi:namedview
     id="base"
     pagecolor="#ffffff"
     bordercolor="#666666"
     borderopacity="1.0"
     inkscape:pageopacity="0.0"
     inkscape:pageshadow="2"
     inkscape:zoom="1.07"
     inkscape:cx="251.30882"
     inkscape:cy="94.182548"
     inkscape:document-units="mm"
     inkscape:current-layer="layer1"
     showgrid="false"
     units="px"
     inkscape:window-width="1440"
     inkscape:window-height="855"
     inkscape:window-x="0"
     inkscape:window-y="1"
     inkscape:window-maximized="1"
     scale-x="1"
     fit-margin-top="0"
     fit-margin-left="0"
     fit-margin-right="0"
     fit-margin-bottom="0"
     inkscape:pagecheckerboard="true" />
  <metadata
     id="metadata5">
    <rdf:RDF>
      <cc:Work
         rdf:about="">
        <dc:format>image/svg+xml</dc:format>
        <dc:type
           rdf:resource="http://purl.org/dc/dcmitype/StillImage" />
        <dc:title></dc:title>
      </cc:Work>
    </rdf:RDF>
  </metadata>
  <g
     inkscape:label="Capa 1"
     inkscape:groupmode="layer"
     id="layer1"
     transform="translate(-5.9549787,-188.64518)">
    <path
       style="opacity:1;fill:#000000;fill-opacity:1;fill-rule:nonzero;stroke:none;stroke-width:1.0330559;stroke-linecap:round;stroke-linejoin:bevel;stroke-miterlimit:4;stroke-dasharray:none;stroke-dashoffset:0;stroke-opacity:1"
       d="m 41.785156,188.6582 c -18.116241,-0.31255 -32.7764395,19.15815 -27.412109,36.45899 3.868094,16.77197 24.204165,26.3754 39.685547,19.02148 16.522239,-6.67436 22.673889,-29.61744 11.660156,-43.64062 -5.492313,-7.43527 -14.647416,-12.13326 -23.933594,-11.83985 z m 0.517578,10.23242 c 14.604436,-0.43881 24.549647,17.99455 15.84375,29.84766 -7.359911,12.62724 -28.304684,10.99445 -33.705078,-2.5957 -5.962257,-12.59372 4.115274,-27.6689 17.861328,-27.25196 z"
       id="path823"
       inkscape:connector-curvature="0" />
    <path
       style="opacity:1;fill:#000000;fill-opacity:1;fill-rule:nonzero;stroke:none;stroke-width:1.0330559;stroke-linecap:round;stroke-linejoin:bevel;stroke-miterlimit:4;stroke-dasharray:none;stroke-dashoffset:0;stroke-opacity:1"
       d="m 115.86914,188.6582 c -18.117745,-0.31313 -32.777797,19.15924 -27.412109,36.46094 3.867334,16.76976 24.202579,26.37334 39.681639,19.01953 16.52617,-6.6702 22.67643,-29.61649 11.66406,-43.64062 -5.49301,-7.43417 -14.64727,-12.13364 -23.93359,-11.83985 z m 0.84766,9.83789 c 14.22585,-0.43619 24.3009,17.28483 16.24804,29.19727 -6.83659,12.87813 -27.75541,12.12884 -33.738278,-1.17774 -6.752878,-12.06255 3.353848,-28.34859 16.990238,-28.01757 l 0.49414,-0.002 z"
       id="path823-9"
       inkscape:connector-curvature="0" />
    <path
       style="fill:#000000;fill-opacity:1;stroke:#000000;stroke-width:0.24373172;stroke-linecap:butt;stroke-linejoin:miter;stroke-miterlimit:4;stroke-dasharray:none;stroke-opacity:1"
       d="m 78.078125,200.31445 c -5.927917,0.23036 -12.222292,1.99485 -16.189453,6.67188 2.576734,3.26581 1.26847,10.97495 6.662109,11.38476 1.722247,-5.93395 6.480728,-5.93282 10.678803,-5.88792 4.198075,0.0449 8.771098,0.3358 10.638981,5.3802 4.034958,3.04296 5.081817,-3.74756 5.606044,-6.92392 1.831426,-4.22384 -1.624304,-7.49711 -5.43164,-8.66406 -3.779458,-1.53431 -7.911398,-2.01662 -11.964844,-1.96094 z"
       id="path861"
       inkscape:connector-curvature="0"
       sodipodi:nodetypes="ccczcccc" />
    <path
       style="opacity:1;fill:#000000;fill-opacity:1;fill-rule:nonzero;stroke:none;stroke-width:0.28857127;stroke-linecap:round;stroke-linejoin:bevel;stroke-miterlimit:4;stroke-dasharray:none;stroke-dashoffset:0;stroke-opacity:1"
       d="m 12.235397,204.40372 c -7.881418,-1.45099 -8.9803093,12.43504 0.365234,13.125 9.345543,0.68996 7.942063,-2.37524 7.570443,-7.70929 -0.37162,-5.33405 -0.05426,-3.96472 -7.935677,-5.41571 z"
       id="path890-8"
       inkscape:connector-curvature="0"
       sodipodi:nodetypes="zzzz" />
    <path
       style="opacity:1;fill:#000000;fill-opacity:1;fill-rule:nonzero;stroke:none;stroke-width:0.28857127;stroke-linecap:round;stroke-linejoin:bevel;stroke-miterlimit:4;stroke-dasharray:none;stroke-dashoffset:0;stroke-opacity:1"
       d="m 146.47877,204.40372 c 7.88142,-1.45099 8.98031,12.43504 -0.36523,13.125 -9.34554,0.68996 -7.94206,-2.37524 -7.57044,-7.70929 0.37162,-5.33405 0.0543,-3.96472 7.93567,-5.41571 z"
       id="path6280"
       inkscape:connector-curvature="0"
       sodipodi:nodetypes="zzzz" />
  </g>
</svg>
